<svg width="280" height="107" viewBox="0 0 280 107" fill="none" xmlns="http://www.w3.org/2000/svg">
<path fill-rule="evenodd" clip-rule="evenodd" d="M58.52 40.71L67.41 40.24C82.96 39.38 83.27 27.56 83.27 27.46V0.410029L81.97 0.280029C81.96 0.350029 79.54 12.37 68.41 12.93L58.22 13.41C49.62 13.83 45.27 19.12 43.13 24.21C40.99 29.27 40.97 34.21 40.97 34.24V53.22C40.72 52.39 40.45 51.6 40.14 50.86C37.99 45.77 33.65 40.49 25.05 40.06L14.86 39.59C8.17 39.25 3.88 34.66 1.84 28.82C1.45 27.68 1.29 26.93 1.29 26.93L0 27.06V54.11C0 54.11 0.00999999 54.88 0.29 56.03C2.04 63.33 8.65 66.49 15.86 66.89L24.75 67.36C37.84 68.09 40.78 82.6 40.98 85.01V106.42H42.3C42.3 104.95 44.94 89.3 58.54 88.55L67.43 88.08C82.98 87.22 83.29 75.4 83.29 75.3V48.25L81.99 48.13C81.98 48.19 79.56 60.22 68.43 60.78L58.24 61.25C49.63 61.68 45.29 66.97 43.15 72.06C42.83 72.82 42.55 73.58 42.32 74.32V58.5C42.15 57.34 45.89 40.71 58.55 40.71" fill="#00483A"/>
<path d="M111.91 47.37V47C111.91 44.99 111.19 43.93 109.82 43.93C109.13 43.93 108.52 44.25 108.23 44.8C107.89 45.38 107.81 45.91 107.81 47.34V53.22C107.81 54.57 107.89 55.26 108.1 55.84C108.36 56.53 109.05 56.98 109.87 56.98C111.27 56.98 111.99 55.84 111.99 53.54C111.99 53.46 111.99 53.28 111.96 53.09H114.71V53.7C114.71 57.51 113.04 59.55 109.86 59.55C108.09 59.55 106.68 58.86 105.91 57.59C105.25 56.5 105.06 55.47 105.06 52.85V47.9C105.06 45.12 105.27 44.11 106.09 43C106.86 41.94 108.21 41.36 109.82 41.36C112.84 41.36 114.61 43.37 114.61 46.84V47.37H111.88" fill="#00483A"/>
<path d="M119.91 54.8901C119.91 56.5601 120.39 57.3001 121.47 57.3001C122.55 57.3001 123.06 56.5601 123.06 54.8901V50.5201C123.06 48.8501 122.58 48.1101 121.5 48.1101C120.42 48.1101 119.91 48.8501 119.91 50.5201V54.8901ZM125.52 54.7401C125.52 56.8101 125.28 57.7101 124.49 58.4701C123.77 59.1801 122.74 59.5601 121.5 59.5601C120.26 59.5601 119.2 59.1901 118.48 58.4701C117.71 57.7001 117.45 56.8001 117.45 54.7401V50.6901C117.45 48.6201 117.71 47.7201 118.48 46.9301C119.2 46.2401 120.23 45.8701 121.5 45.8701C122.77 45.8701 123.78 46.2401 124.49 46.9301C125.28 47.7301 125.52 48.6301 125.52 50.6901V54.7401Z" fill="#00483A"/>
<path d="M131.16 47.8201C132.3 46.5001 133.28 45.9401 134.44 45.9401C135.9 45.9401 136.58 46.9201 136.58 49.0101V59.2801H134.12V49.6401C134.12 48.4801 133.88 48.1101 133.17 48.1101C132.51 48.1101 131.77 48.5901 131.16 49.4301V59.2801H128.7V46.1201H131.16V47.8101" fill="#00483A"/>
<path d="M142.57 59.2901L139.34 46.1301H141.96L143.84 54.5001L145.51 46.1301H148.1L145.16 59.2901H142.56" fill="#00483A"/>
<path d="M156.19 50.2301C156.19 48.6701 155.71 48.0301 154.57 48.0301C153.43 48.0301 152.95 48.6901 152.95 50.2301V50.9501H156.18V50.2301H156.19ZM152.96 53.1201V54.2801C152.96 55.5501 153.04 56.1301 153.28 56.5801C153.52 57.0301 154.02 57.3001 154.63 57.3001C155.72 57.3001 156.22 56.6101 156.22 55.0801V54.7401H158.68C158.65 56.5401 158.57 57.1201 158.18 57.7901C157.54 58.9301 156.27 59.5601 154.63 59.5601C153.12 59.5601 151.98 59.0801 151.32 58.1801C150.74 57.3601 150.5 56.3801 150.5 54.6101V50.6901C150.5 48.6001 150.74 47.7201 151.56 46.9601C152.27 46.2501 153.31 45.8701 154.55 45.8701C155.87 45.8701 156.96 46.2901 157.65 47.0901C158.39 47.9401 158.66 48.8901 158.66 50.9601V53.1301H152.97" fill="#00483A"/>
<path d="M164.08 47.8201C165.22 46.5001 166.2 45.9401 167.36 45.9401C168.82 45.9401 169.5 46.9201 169.5 49.0101V59.2801H167.04V49.6401C167.04 48.4801 166.8 48.1101 166.09 48.1101C165.43 48.1101 164.69 48.5901 164.08 49.4301V59.2801H161.62V46.1201H164.08V47.8101" fill="#00483A"/>
<path d="M178.54 48.33H176.29V55.35C176.29 56.67 176.74 57.23 177.82 57.23C178.11 57.23 178.35 57.18 178.77 57.07V59.29C178.08 59.42 177.66 59.48 177.1 59.48C175.86 59.48 174.96 59.16 174.42 58.5C173.95 57.92 173.81 57.28 173.81 55.61V48.33H171.9V46.13H173.81V42.53H176.27V46.13H178.52V48.33" fill="#00483A"/>
<path d="M181.18 46.1301H183.64V59.2901H181.18V46.1301ZM181.18 41.6301H183.64V44.2001H181.18V41.6301Z" fill="#00483A"/>
<path d="M189.1 54.8901C189.1 56.5601 189.58 57.3001 190.66 57.3001C191.74 57.3001 192.25 56.5601 192.25 54.8901V50.5201C192.25 48.8501 191.77 48.1101 190.69 48.1101C189.61 48.1101 189.1 48.8501 189.1 50.5201V54.8901ZM194.72 54.7401C194.72 56.8101 194.48 57.7101 193.69 58.4701C192.97 59.1801 191.94 59.5601 190.7 59.5601C189.46 59.5601 188.4 59.1901 187.68 58.4701C186.91 57.7001 186.65 56.8001 186.65 54.7401V50.6901C186.65 48.6201 186.91 47.7201 187.68 46.9301C188.4 46.2401 189.43 45.8701 190.7 45.8701C191.97 45.8701 192.98 46.2401 193.69 46.9301C194.48 47.7301 194.72 48.6301 194.72 50.6901V54.7401Z" fill="#00483A"/>
<path d="M200.28 47.8201C201.42 46.5001 202.4 45.9401 203.56 45.9401C205.02 45.9401 205.71 46.9201 205.71 49.0101V59.2801H203.25V49.6401C203.25 48.4801 203.01 48.1101 202.3 48.1101C201.64 48.1101 200.9 48.5901 200.29 49.4301V59.2801H197.83V46.1201H200.29V47.8101" fill="#00483A"/>
<path d="M217.09 54.8901C217.09 56.5601 217.57 57.3001 218.65 57.3001C219.73 57.3001 220.24 56.5601 220.24 54.8901V50.5201C220.24 48.8501 219.76 48.1101 218.68 48.1101C217.6 48.1101 217.09 48.8501 217.09 50.5201V54.8901ZM222.71 54.7401C222.71 56.8101 222.47 57.7101 221.68 58.4701C220.96 59.1801 219.93 59.5601 218.69 59.5601C217.45 59.5601 216.39 59.1901 215.67 58.4701C214.9 57.7001 214.64 56.8001 214.64 54.7401V50.6901C214.64 48.6201 214.9 47.7201 215.67 46.9301C216.39 46.2401 217.42 45.8701 218.69 45.8701C219.96 45.8701 220.97 46.2401 221.68 46.9301C222.47 47.7301 222.71 48.6301 222.71 50.6901V54.7401Z" fill="#00483A"/>
<path d="M227.85 47.8201C228.99 46.5001 229.97 45.9401 231.13 45.9401C232.59 45.9401 233.27 46.9201 233.27 49.0101V59.2801H230.81V49.6401C230.81 48.4801 230.57 48.1101 229.86 48.1101C229.2 48.1101 228.46 48.5901 227.85 49.4301V59.2801H225.39V46.1201H227.85V47.8101" fill="#00483A"/>
<path d="M109.37 83.9701C111.09 83.9701 112.1 83.0701 112.1 81.4801C112.1 79.7101 110.88 78.5401 108.98 78.5401H108V83.9701H109.38H109.37ZM108.97 76.0201C110.64 76.0201 111.72 75.0401 111.72 73.5301C111.72 72.8701 111.48 72.2901 111.06 71.8901C110.61 71.4901 110.05 71.3301 109.02 71.3301H107.99V76.0201H108.97ZM105.27 68.8201H109.35C112.66 68.8201 114.51 70.4401 114.51 73.3001C114.51 75.3901 113.58 76.6401 111.6 77.2501C113.98 77.9401 114.94 79.1601 114.94 81.4901C114.94 84.6101 112.98 86.4901 109.7 86.4901H105.28V68.8301" fill="#00483A"/>
<path d="M117.92 73.3201H120.38V86.4801H117.92V73.3201ZM117.92 68.8201H120.38V71.3901H117.92V68.8201Z" fill="#00483A"/>
<path d="M125.87 82.0901C125.87 83.7601 126.35 84.5001 127.43 84.5001C128.51 84.5001 129.02 83.7601 129.02 82.0901V77.7201C129.02 76.0501 128.54 75.3101 127.46 75.3101C126.38 75.3101 125.87 76.0501 125.87 77.7201V82.0901ZM131.48 81.9301C131.48 83.9901 131.24 84.8901 130.45 85.6601C129.73 86.3701 128.7 86.7501 127.46 86.7501C126.22 86.7501 125.16 86.3801 124.44 85.6601C123.67 84.8901 123.41 83.9901 123.41 81.9301V77.8801C123.41 75.8101 123.67 74.9101 124.44 74.1201C125.15 73.4301 126.19 73.0601 127.46 73.0601C128.73 73.0601 129.74 73.4301 130.45 74.1201C131.24 74.9201 131.48 75.8201 131.48 77.8801V81.9301Z" fill="#00483A"/>
<path d="M134.47 68.8201H136.93V86.4801H134.47V68.8201Z" fill="#00483A"/>
<path d="M142.42 82.0901C142.42 83.7601 142.9 84.5001 143.98 84.5001C145.06 84.5001 145.57 83.7601 145.57 82.0901V77.7201C145.57 76.0501 145.09 75.3101 144.01 75.3101C142.93 75.3101 142.42 76.0501 142.42 77.7201V82.0901ZM148.03 81.9301C148.03 83.9901 147.79 84.8901 147 85.6601C146.29 86.3701 145.25 86.7501 144.01 86.7501C142.77 86.7501 141.71 86.3801 140.99 85.6601C140.22 84.8901 139.96 83.9901 139.96 81.9301V77.8801C139.96 75.8101 140.23 74.9101 140.99 74.1201C141.71 73.4301 142.74 73.0601 144.01 73.0601C145.28 73.0601 146.29 73.4301 147 74.1201C147.8 74.9201 148.03 75.8201 148.03 77.8801V81.9301Z" fill="#00483A"/>
<path d="M153.3 78.9101C153.3 80.3401 153.8 81.0501 154.78 81.0501C155.81 81.0501 156.29 80.3601 156.29 78.9101V77.4501C156.29 76.0001 155.81 75.3101 154.81 75.3101C153.81 75.3101 153.3 76.0201 153.3 77.4501V78.9101ZM153.51 86.9101C153.19 87.1701 152.93 87.6501 152.93 88.0201C152.93 88.7901 153.62 89.1101 155.37 89.1101C157.12 89.1101 157.89 88.7401 157.89 87.9701C157.89 87.4701 157.57 87.2001 156.86 87.1001C156.49 87.0201 156.25 87.0201 154.9 86.9701C154.56 86.9401 154.21 86.9201 153.6 86.8401C153.57 86.8701 153.57 86.8901 153.52 86.9201L153.51 86.9101ZM160.35 75.8101C160.06 75.5501 159.85 75.4701 159.5 75.4701C159.07 75.4701 158.84 75.6001 158.55 75.9701C158.74 76.6601 158.81 77.2701 158.81 78.1701C158.81 81.4501 157.41 83.2301 154.84 83.2301C154.55 83.2301 154.31 83.2001 153.89 83.1201C153.52 83.3101 153.31 83.5701 153.31 83.8901C153.31 84.1801 153.49 84.3701 153.84 84.4701C154.1 84.5201 154.37 84.5501 155.88 84.6301C157.55 84.7401 158.26 84.8901 158.98 85.3401C159.78 85.8401 160.23 86.7701 160.23 87.8801C160.23 90.1301 158.59 91.1601 154.99 91.1601C151.94 91.1601 150.44 90.3701 150.44 88.7801C150.44 87.7501 151.05 87.1101 152.51 86.6101C151.4 86.1601 150.97 85.6801 150.97 84.8901C150.97 83.8801 151.53 83.3601 153.01 82.8501C151.48 82.0301 150.81 80.6301 150.81 78.1601C150.81 74.8801 152.21 73.1301 154.86 73.1301C156.37 73.1301 157.24 73.6101 158.06 74.8001C158.4 73.6101 159.07 73.1301 160.36 73.1801V75.8001" fill="#00483A"/>
<path d="M162.44 73.3201H164.9V86.4801H162.44V73.3201ZM162.44 68.8201H164.9V71.3901H162.44V68.8201Z" fill="#00483A"/>
<path d="M173.64 77.8801V77.5301C173.64 76.0201 173.14 75.3101 172.05 75.3101C171.44 75.3101 170.94 75.5701 170.7 76.0201C170.46 76.4701 170.38 77.0501 170.38 78.3201V81.5001C170.38 82.7501 170.46 83.3301 170.7 83.7801C170.94 84.2301 171.44 84.5001 172.05 84.5001C173.14 84.5001 173.64 83.7801 173.64 82.2001V81.8301H176.1V82.3301C176.1 83.8901 175.84 84.8201 175.17 85.5401C174.45 86.3301 173.37 86.7601 172.04 86.7601C170.56 86.7601 169.39 86.2801 168.73 85.3801C168.12 84.5601 167.91 83.6301 167.91 81.8301V78.0201C167.91 76.2201 168.12 75.2701 168.73 74.4501C169.39 73.5501 170.56 73.0701 172.04 73.0701C173.39 73.0701 174.45 73.4701 175.17 74.2601C175.83 74.9701 176.1 75.8801 176.1 77.4101V77.8901H173.64" fill="#00483A"/>
<path d="M183.94 79.7001C181.77 80.8601 180.89 81.7901 180.89 83.0101C180.89 83.8801 181.42 84.4901 182.13 84.4901C182.84 84.4901 183.45 84.0701 183.93 83.3001V79.7001H183.94ZM184.15 86.4801C184.02 86.1101 183.94 85.5801 183.94 84.9401C182.75 86.2401 182.03 86.6601 180.97 86.6601C179.3 86.6601 178.29 85.3401 178.29 83.1601C178.29 81.5201 178.9 80.4801 180.44 79.5301C181.07 79.1301 181.74 78.8201 183.94 77.8601V77.1701C183.94 75.8201 183.57 75.2901 182.64 75.2901C181.71 75.2901 181.29 75.8501 181.18 77.1701H178.59C178.8 74.5501 180.34 73.1201 182.99 73.1201C184.21 73.1201 185.08 73.4601 185.69 74.1301C186.25 74.7901 186.4 75.4301 186.4 77.0401V82.8901C186.4 84.8801 186.45 85.4801 186.69 86.4601H184.15" fill="#00483A"/>
<path d="M189.69 68.8201H192.15V86.4801H189.69V68.8201Z" fill="#00483A"/>
<path d="M204.92 83.9701C206.85 83.9701 207.54 82.9601 207.54 80.2101V75.1001C207.54 72.3201 206.85 71.3401 204.92 71.3401H203.57V83.9701H204.92ZM200.84 68.8201H205.16C208.63 68.8201 210.27 70.6001 210.27 74.3501V80.9401C210.27 84.7001 208.63 86.4701 205.16 86.4701H200.84V68.8101" fill="#00483A"/>
<path d="M213.26 73.3201H215.72V86.4801H213.26V73.3201ZM213.26 68.8201H215.72V71.3901H213.26V68.8201Z" fill="#00483A"/>
<path d="M221.39 86.4801L218.16 73.3201H220.78L222.66 81.6901L224.33 73.3201H226.92L223.98 86.4801H221.39Z" fill="#00483A"/>
<path d="M234.71 77.4301C234.71 75.8701 234.23 75.23 233.1 75.23C231.97 75.23 231.48 75.8901 231.48 77.4301V78.1401H234.71V77.4301ZM231.48 80.3101V81.4701C231.48 82.7401 231.56 83.3201 231.8 83.7701C232.04 84.22 232.54 84.4901 233.15 84.4901C234.24 84.4901 234.74 83.8 234.74 82.2701V81.9301H237.2C237.17 83.7301 237.09 84.3101 236.7 84.9701C236.06 86.1101 234.79 86.7501 233.15 86.7501C231.64 86.7501 230.5 86.27 229.84 85.37C229.26 84.55 229.02 83.57 229.02 81.8V77.8801C229.02 75.7901 229.26 74.9101 230.08 74.1401C230.79 73.4301 231.83 73.05 233.07 73.05C234.39 73.05 235.48 73.4701 236.17 74.2701C236.91 75.12 237.18 76.0701 237.18 78.1401V80.3101H231.49" fill="#00483A"/>
<path d="M242.57 73.32V75.6C243.23 73.85 244.18 73.14 245.72 73.14V76C245.24 75.81 244.92 75.76 244.53 75.76C243.87 75.76 243.34 76 242.99 76.45C242.65 76.9 242.57 77.32 242.57 78.57V86.49H240.11V73.33H242.57" fill="#00483A"/>
<path d="M252.82 77.2201C252.32 75.8401 251.73 75.3101 250.78 75.3101C250.01 75.3101 249.48 75.7901 249.48 76.4701C249.48 77.1501 249.85 77.5301 251.7 78.5601C253.18 79.3801 253.84 79.8301 254.37 80.3601C254.95 80.9701 255.3 81.8701 255.3 82.8501C255.3 85.1801 253.66 86.7401 251.25 86.7401C249 86.7401 247.6 85.5701 246.75 83.0301L249.05 82.2401C249.58 83.8601 250.21 84.4901 251.25 84.4901C252.07 84.4901 252.65 83.9301 252.65 83.1701C252.65 82.4101 252.23 81.9501 250.8 81.1801C248.95 80.1501 248.49 79.8301 247.91 79.2201C247.3 78.5801 246.96 77.68 246.96 76.73C246.96 74.61 248.58 73.05 250.8 73.05C252.89 73.05 254.24 74.08 255.06 76.23L252.81 77.2101" fill="#00483A"/>
<path d="M257.67 73.3201H260.13V86.4801H257.67V73.3201ZM257.67 68.8201H260.13V71.3901H257.67V68.8201Z" fill="#00483A"/>
<path d="M268.92 75.52H266.67V82.54C266.67 83.86 267.12 84.42 268.21 84.42C268.5 84.42 268.74 84.37 269.16 84.26V86.48C268.47 86.61 268.05 86.67 267.49 86.67C266.24 86.67 265.34 86.35 264.81 85.69C264.33 85.11 264.2 84.47 264.2 82.8V75.52H262.29V73.32H264.2V69.72H266.66V73.32H268.91V75.52" fill="#00483A"/>
<path d="M279.3 73.3201L276.44 85.9301C275.54 90.2501 274.56 91.1701 270.85 91.1701V88.6301C271.01 88.6601 271.19 88.6601 271.25 88.6601C272.63 88.6601 273.53 87.7901 273.53 86.4901C273.53 86.2001 273.48 85.8801 273.34 85.3501L270.45 73.3301H273.04L274.97 82.3101L276.74 73.3301H279.28" fill="#00483A"/>
</svg>
